<svg width="1729" height="1055" viewBox="0 0 1729 1055" fill="none" xmlns="http://www.w3.org/2000/svg">
<path d="M1172.54 829.417C1272.91 824.54 1339.97 799.549 1354.39 753.63C1372.27 697.552 1308.27 621.562 1191.03 544.557C1474.07 607.34 1697.58 596.165 1725.82 507.578C1760.57 398.674 1486.26 213.779 1113 94.9181C739.741 -24.1458 409.15 -32.2729 374.405 76.632C356.524 132.71 420.529 208.699 537.77 285.705C254.726 222.922 31.2163 234.097 2.97287 322.684C-29.944 425.696 214.087 596.571 556.463 715.635C456.087 720.512 389.034 745.503 374.608 791.422C339.862 900.327 614.169 1085.22 987.43 1204.08C1360.69 1323.15 1691.28 1331.27 1726.03 1222.37C1758.94 1119.36 1514.91 948.481 1172.54 829.417Z" fill="#373737" fill-opacity="0.32"/>
</svg>
