<svg width="1624" height="1080" viewBox="0 0 1624 1080" fill="none" xmlns="http://www.w3.org/2000/svg">
<path d="M1230.26 1030.26C1285.02 975.503 1279.68 871.876 1226.88 751.959C1204.41 700.846 1255.66 649.598 1306.77 672.067C1426.83 724.73 1530.31 730.212 1585.07 675.453C1686.45 574.079 1581.68 304.756 1350.82 73.9001C1119.97 -156.956 850.785 -261.862 749.271 -160.347C694.512 -105.588 699.994 -2.10207 752.657 117.956C775.126 169.069 723.878 220.317 672.765 197.848C552.707 145.185 449.221 139.703 394.462 194.462C339.703 249.221 345.045 352.847 397.848 472.765C420.317 523.878 369.068 575.126 317.956 552.657C197.898 499.994 94.4115 494.512 39.6527 549.271C-61.7214 650.645 43.044 919.968 273.9 1150.82C504.756 1381.68 774.079 1486.45 875.453 1385.07C930.212 1330.31 924.87 1226.69 872.067 1106.77C849.597 1055.66 900.846 1004.41 951.959 1026.88C1072.02 1079.54 1175.5 1085.02 1230.26 1030.26Z" fill="#373737" fill-opacity="0.32"/>
</svg>
