<svg width="1363" height="1080" viewBox="0 0 1363 1080" fill="none" xmlns="http://www.w3.org/2000/svg">
<path d="M1050.02 -204.055C961.189 -193.479 907.956 8.93961 907.35 289.614C704.122 -4.35012 495.467 -183.982 402.099 -130.075C308.73 -76.1691 360.069 194.522 512.934 517.33C269.56 377.517 67.6442 322.409 14.0683 394.052C-58.1448 490.646 166.639 781.238 516.441 1042.92C838.085 1283.64 1153.23 1415.98 1258.07 1360.57C1258.77 1360.16 1259.64 1359.66 1260.34 1359.26C1260.69 1359.06 1261.21 1358.75 1261.56 1358.55C1261.91 1358.35 1262.43 1358.05 1262.78 1357.85C1263.48 1357.44 1264.35 1356.94 1265.05 1356.54C1365.45 1293.45 1408.24 954.457 1360.77 555.446C1309.05 121.667 1169.78 -218.297 1050.02 -204.055Z" fill="#373737" fill-opacity="0.32"/>
</svg>
