<svg width="242" height="80" viewBox="0 0 242 80" fill="none" xmlns="http://www.w3.org/2000/svg">
<path d="M88.4306 67.1338C83.6992 67.1338 80.2058 66.0485 77.9333 63.8947C75.6609 61.741 74.5247 57.8236 74.5247 52.1594C74.5247 46.4953 75.6609 42.51 77.9333 40.3393C80.2058 38.1686 83.6992 37.0833 88.4306 37.0833C94.0948 37.0833 97.7578 39.0844 99.3859 43.1036H100.013V37.9482H108.289V76.5289H100.013V61.1644H99.3859C97.7578 65.1667 94.1118 67.1847 88.4306 67.1847V67.1338ZM91.8393 61.6901C97.283 61.6901 100.013 59.5194 100.013 55.1611V49.0391C100.013 44.6977 97.283 42.5101 91.8393 42.5101C90.0926 42.5101 88.7189 42.6287 87.7014 42.8492C86.6839 43.0697 85.7682 43.5276 84.9711 44.2059C84.1741 44.8843 83.6144 45.8678 83.2922 47.1227C82.97 48.3777 82.8174 50.0566 82.8174 52.1425C82.8174 56.0769 83.4618 58.6545 84.7676 59.8586C86.0734 61.0627 88.4306 61.6732 91.8224 61.6732L91.8393 61.6901Z" fill="white"/>
<path d="M131.031 37.0664C136.898 37.0664 141.24 38.2026 144.055 40.4751C146.87 42.7475 148.278 46.6819 148.278 52.2782C148.278 57.8745 146.87 61.5545 144.055 63.7931C141.24 66.0316 136.898 67.1339 131.031 67.1339C125.163 67.1339 120.94 66.0146 118.091 63.7931C115.259 61.5545 113.835 57.7219 113.835 52.2782C113.835 46.8345 115.242 42.7475 118.057 40.4751C120.873 38.2026 125.197 37.0664 131.014 37.0664H131.031ZM124.281 59.706C125.723 61.0288 127.961 61.6902 131.031 61.6902C134.1 61.6902 136.356 61.0288 137.814 59.706C139.273 58.3833 140.002 55.9073 140.002 52.2782C140.002 48.6491 139.256 45.9696 137.797 44.596C136.322 43.2224 134.066 42.5271 131.048 42.5271C128.029 42.5271 125.74 43.2054 124.298 44.5621C122.857 45.9188 122.144 48.4965 122.144 52.2782C122.144 56.06 122.857 58.3833 124.298 59.706H124.281Z" fill="white"/>
<path d="M170.222 37.0664C176.089 37.0664 180.431 38.2026 183.246 40.4751C186.061 42.7475 187.469 46.6819 187.469 52.2782C187.469 57.8745 186.061 61.5545 183.246 63.7931C180.431 66.0316 176.089 67.1339 170.222 67.1339C164.354 67.1339 160.131 66.0146 157.282 63.7931C154.45 61.5545 153.026 57.7219 153.026 52.2782C153.026 46.8345 154.433 42.7475 157.248 40.4751C160.064 38.2026 164.388 37.0664 170.205 37.0664H170.222ZM163.472 59.706C164.914 61.0288 167.152 61.6902 170.222 61.6902C173.291 61.6902 175.547 61.0288 177.005 59.706C178.464 58.3833 179.193 55.9073 179.193 52.2782C179.193 48.6491 178.447 45.9696 176.988 44.596C175.513 43.2224 173.257 42.5271 170.239 42.5271C167.22 42.5271 164.931 43.2054 163.489 44.5621C162.048 45.9188 161.335 48.4965 161.335 52.2782C161.335 56.06 162.048 58.3833 163.489 59.706H163.472Z" fill="white"/>
<path d="M212.94 67.1339C207.276 67.1339 203.613 65.1328 201.985 61.1136H201.358V76.478H193.082V37.8974H201.358V43.0528H201.985C203.613 39.0506 207.259 37.0325 212.94 37.0325C217.672 37.0325 221.148 38.1178 223.404 40.2885C225.659 42.4592 226.778 46.4106 226.778 52.1086C226.778 57.8067 225.659 61.6902 223.404 63.844C221.148 65.9977 217.672 67.083 212.94 67.083V67.1339ZM209.532 42.5102C204.241 42.5102 201.51 44.5452 201.358 48.6322V55.1612C201.358 59.5026 204.088 61.6902 209.532 61.6902C212.94 61.6902 215.298 61.0797 216.586 59.8757C217.892 58.6716 218.537 56.0939 218.537 52.1595C218.537 48.2251 217.892 45.5966 216.586 44.3586C215.281 43.1376 212.923 42.5102 209.532 42.5102Z" fill="white"/>
<path d="M241.126 33.149H232.443V27.2983H241.126V33.149ZM232.612 37.9143H240.956V66.269H232.612V37.9143Z" fill="white"/>
<mask id="mask0_808_2101" style="mask-type:luminance" maskUnits="userSpaceOnUse" x="0" y="25" width="55" height="55">
<path d="M38.7367 25.86H15.4031C6.89621 25.86 0 32.7563 0 41.2632V64.5968C0 73.1037 6.89621 80 15.4031 80H38.7367C47.2436 80 54.1399 73.1037 54.1399 64.5968V41.2632C54.1399 32.7563 47.2436 25.86 38.7367 25.86Z" fill="white"/>
</mask>
<g mask="url(#mask0_808_2101)">
<path d="M39.9456 80.0001H3.8147e-05V25.8602H54.1399V65.8057C54.3963 73.6813 47.8395 80.0001 39.9456 80.0001Z" fill="#662D91"/>
<path d="M20.5682 31.6843C20.5682 34.3767 22.766 36.5561 25.4583 36.5561H28.5719C31.2643 36.5561 33.4438 34.3767 33.4621 31.6843" stroke="white" stroke-miterlimit="10"/>
<path opacity="0.8" d="M50.8428 94.5608L14.9999 102.51C10.2929 103.554 5.64079 100.587 4.59682 95.8979C2.41731 86.0443 -1.17248 69.9085 -3.352 60.0549C-4.39596 55.3479 -1.42889 50.7141 3.27812 49.6702L39.1027 41.7213C43.8098 40.6774 48.4618 43.6445 49.5058 48.3332C51.6853 58.1868 55.2751 74.3225 57.4546 84.1761C58.4986 88.8831 55.5315 93.5351 50.8245 94.5608H50.8428Z" fill="white"/>
<path d="M27.39 49.5634L16.9831 51.8706C16.1141 52.0632 15.5649 52.9199 15.7565 53.784C15.948 54.6481 16.8078 55.1924 17.6769 54.9998L28.0837 52.6926C28.9527 52.5 29.5019 51.6433 29.3103 50.7792C29.1188 49.9151 28.259 49.3708 27.39 49.5634Z" fill="#662D91"/>
<path d="M38.1325 120.055L4.08442 112.345C-1.09879 111.172 -4.34059 106.026 -3.16841 100.843L4.54231 66.7947C5.71448 61.6115 10.8611 58.3697 16.0443 59.5418L50.0923 67.2525C55.2755 68.4247 58.5173 73.5714 57.3452 78.7546L49.6528 112.803C48.4806 117.986 43.334 121.228 38.1508 120.055H38.1325Z" fill="black"/>
<path d="M37.29 70.934C36.5757 74.0476 33.4804 76.0074 30.3668 75.3114C27.2532 74.6154 25.2935 71.5018 25.9895 68.3882" fill="#E0D5E9"/>
</g>
<path d="M225.049 2.15833L191.755 7.8952C184.837 9.08721 180.195 15.6616 181.387 22.5795C182.579 29.4974 189.153 34.1391 196.071 32.9471L229.366 27.2102C236.283 26.0182 240.925 19.4439 239.733 12.526C238.541 5.60807 231.967 0.966316 225.049 2.15833Z" fill="#662D91"/>
<path d="M198.35 26.3945C196.636 26.6897 195.409 26.1863 194.682 24.8818L194.431 24.9251L194.741 26.7272L192.304 27.1471L190.003 13.794L192.441 13.3741L193.385 18.8542L193.636 18.8109C193.884 17.3384 194.872 16.4533 196.586 16.1581C197.989 15.9163 199.087 16.1073 199.896 16.7436C200.69 17.3824 201.259 18.6533 201.593 20.5883C201.926 22.5233 201.813 23.8965 201.278 24.7644C200.741 25.6175 199.755 26.1674 198.352 26.4092L198.35 26.3945ZM195.853 18.2615C194.243 18.539 193.53 19.3462 193.703 20.7006L194.09 22.9458C194.334 24.3638 195.284 24.9303 196.953 24.6427C198.016 24.4594 198.719 24.1254 199.034 23.6604C199.35 23.1954 199.394 22.3056 199.168 20.991C198.941 19.6763 198.599 18.8379 198.129 18.493C197.659 18.1481 196.899 18.066 195.851 18.2468L195.853 18.2615Z" fill="white"/>
<path d="M212.901 17.8944L213.115 19.1352L205.552 20.4383C205.725 21.4428 206.093 22.079 206.602 22.3867C207.127 22.6918 207.824 22.7693 208.711 22.6166C210.188 22.3621 210.896 21.7076 210.866 20.6482L213.303 20.2282C213.389 21.5215 213.084 22.4867 212.363 23.1584C211.642 23.8301 210.536 24.2946 209.029 24.5542C207.286 24.8545 205.935 24.6919 204.963 24.0837C203.989 23.4606 203.351 22.232 203.031 20.3709C202.71 18.5097 202.884 17.0499 203.591 16.122C204.286 15.2113 205.503 14.5911 207.246 14.2907C210.51 13.7283 212.389 14.9254 212.898 17.8796L212.901 17.8944ZM205.33 19.1532L205.343 19.2271L210.454 18.3465C210.294 17.4159 209.975 16.8016 209.48 16.4913C209.001 16.1786 208.347 16.0934 207.549 16.2309C206.752 16.3683 206.132 16.6576 205.75 17.0884C205.368 17.5193 205.212 18.2002 205.328 19.1385L205.33 19.1532Z" fill="white"/>
<path d="M221.678 20.0174L222.024 22.0263L219.823 22.4055C218.612 22.6142 217.65 22.5061 216.95 22.0639C216.25 21.6218 215.793 20.8185 215.586 19.622L214.841 15.2941L213.231 15.5715L212.897 13.6365L214.507 13.3591L213.873 9.68101L216.311 9.26105L216.944 12.9391L220.357 12.3512L220.69 14.2862L217.278 14.8741L218.008 19.1134C218.108 19.6895 218.309 20.0654 218.611 20.2264C218.912 20.3874 219.373 20.4144 219.994 20.3075L221.663 20.0199L221.678 20.0174Z" fill="white"/>
<path d="M226.326 21.5738C225.248 21.7596 224.363 21.6535 223.653 21.2435C222.944 20.8334 222.504 20.1335 222.328 19.1142C222.18 18.2575 222.351 17.4828 222.848 16.8345C223.342 16.1714 224.286 15.735 225.689 15.4932C226.472 15.3583 227.587 15.2117 229.018 15.0412L228.886 14.2731C228.787 13.697 228.535 13.2992 228.152 13.1066C227.769 12.9141 227.185 12.8779 226.388 13.0153C225.664 13.14 225.15 13.3351 224.834 13.6177C224.517 13.9004 224.382 14.3496 224.383 14.973L221.99 15.3853C221.886 14.0799 222.157 13.0903 222.821 12.4435C223.486 11.7967 224.577 11.3348 226.084 11.0752C229.156 10.5458 230.896 11.4628 231.306 13.841L232.41 20.2516L229.973 20.6716L229.675 18.9434L229.424 18.9866C229.3 19.6773 228.973 20.2508 228.411 20.6974C227.849 21.144 227.156 21.446 226.299 21.5936L226.326 21.5738ZM227.069 19.5293C228.842 19.2239 229.598 18.4091 229.367 17.0649L229.26 16.4445C228.44 16.5402 227.652 16.6455 226.913 16.7728C225.968 16.9357 225.368 17.1607 225.099 17.4505C224.829 17.7403 224.74 18.1055 224.811 18.5191C224.895 19.0066 225.119 19.3331 225.479 19.4839C225.84 19.6347 226.375 19.649 227.069 19.5293Z" fill="white"/>
</svg>
